<svg width="100" height="100" viewBox="0 0 100 100" fill="none" xmlns="http://www.w3.org/2000/svg">
<path fill-rule="evenodd" clip-rule="evenodd" d="M41.6845 18.9582C37.506 21.1304 34.0874 22.9686 34.0881 23.0434C34.09 23.2363 44.1166 28.3039 44.4725 28.2916C44.6344 28.2862 45.8088 27.7467 47.0821 27.0929L49.3976 25.9043L51.9264 27.2015L54.4551 28.499L58.5963 26.642C64.8363 23.8436 65.4844 23.537 65.3827 23.434C65.248 23.2973 63.0098 22.0974 56.9376 18.907C54.0029 17.3651 51.1546 15.8532 50.6078 15.5473C50.0611 15.2414 49.5391 14.9953 49.4479 15.0001C49.3567 15.0048 45.8631 16.786 41.6845 18.9582ZM23.3576 28.4293L19.0078 30.6715V40.5124C19.0078 45.9249 19.065 50.3531 19.135 50.3531C19.2048 50.3531 21.3449 49.4273 23.8907 48.2958L28.5193 46.2384V35.8655L30.7812 37.0953C32.5241 38.0421 34.2681 38.987 36.0132 39.9299L38.9832 41.5348L40.3049 40.9383C41.1337 40.5637 41.9609 40.1854 42.7864 39.8035C43.4244 39.507 44.9903 38.8031 46.2662 38.239C47.5421 37.6747 48.7232 37.1072 48.8907 36.9778C49.1131 36.806 46.4003 35.3099 38.8568 31.444C33.1706 28.5299 28.3358 26.1549 28.1129 26.1663C27.8899 26.1777 25.75 27.1959 23.3576 28.4293ZM66.1667 29.0589C63.2042 30.3936 60.7783 31.539 60.7755 31.6043C60.773 31.6695 62.3876 32.6276 64.3639 33.7331C66.34 34.8388 67.9569 35.8026 67.9569 35.8752C67.9569 35.9476 66.2082 36.7932 64.0712 37.7546C61.9338 38.7158 56.5316 41.1505 52.0659 43.1652L37.1028 49.9151C33.3388 51.6131 29.946 53.1437 29.5633 53.3167C21.8752 56.79 19.762 57.7538 19.4718 57.9192C19.18 58.0858 19.1139 59.0534 19.062 63.9101L19 69.7025L22.8898 71.6805L26.7794 73.6583L32.1731 71.2291C35.1397 69.8931 37.5667 68.73 37.5667 68.6443C37.5667 68.5589 37.0185 68.2024 36.3488 67.8519C35.6788 67.5013 34.2957 66.7252 33.275 66.127C32.2543 65.5286 31.2366 64.9797 31.0131 64.9068C30.7897 64.8343 30.6102 64.7073 30.6139 64.6244C30.6176 64.5418 32.9927 63.4159 35.8916 62.1223C41.5221 59.6099 45.831 57.6736 55.0817 53.4987C59.2182 51.6322 63.3553 49.7669 67.4929 47.9027C71.1293 46.2647 75.3572 44.3516 76.8884 43.6515L79.6722 42.3785L79.7341 36.52L79.7963 30.6618L75.8511 28.6409C73.6812 27.5296 71.8264 26.623 71.7292 26.6263C71.632 26.6294 69.1289 27.7239 66.1667 29.0589ZM78.6152 50.1939C78.0339 50.4773 76.8855 51.0079 76.0634 51.3729C75.2413 51.738 73.6812 52.4405 72.5966 52.9343L70.6247 53.8319L70.5797 58.9751C70.5549 61.8038 70.4505 64.1056 70.3478 64.0907C70.1144 64.056 66.4186 62.1645 62.7036 60.1778C60.0223 58.7442 59.8538 58.6872 59.2238 58.9986C58.8595 59.1787 56.6824 60.1531 54.3858 61.1644C52.089 62.1755 50.1351 63.0688 50.0432 63.1497C49.9515 63.2304 54.5738 65.7306 60.3153 68.706L70.754 74.1157L75.2132 71.8136C77.6655 70.5476 79.7508 69.3928 79.8469 69.2476C80.063 68.921 80.0445 49.6338 79.8281 49.6599C79.7425 49.6702 79.1966 49.9105 78.6152 50.1939ZM53.9218 72.8322C53.1483 73.1641 52.375 73.4964 51.6019 73.8292C49.2674 74.8372 49.7249 74.8706 46.9476 73.4908C45.0977 72.5718 44.3004 72.2883 43.9543 72.4259C43.6946 72.5291 41.4604 73.5323 38.9888 74.6551C36.5174 75.7779 34.4096 76.6966 34.3048 76.6966C33.2679 76.6966 34.9917 77.7244 41.6437 81.0731L49.4449 85L52.7273 83.3828C54.5326 82.4933 58.1738 80.7122 60.8191 79.4247C63.4642 78.1369 65.5958 77.05 65.5559 77.0089C65.5157 76.9681 63.2993 75.8323 60.6303 74.4849L55.7777 72.0355L53.9218 72.8322Z" fill="#05A3C9"/>
</svg>
