<svg width="100" height="100" viewBox="0 0 100 100" fill="none" xmlns="http://www.w3.org/2000/svg">
<path d="M29.7262 48.9796C29.7263 48.5798 29.8045 48.1841 29.9563 47.815C30.1081 47.4458 30.3306 47.1107 30.6109 46.8287C30.8912 46.5467 31.2238 46.3235 31.5898 46.1718C31.9557 46.0202 32.3476 45.9431 32.7431 45.9449L37.745 45.9614C38.5425 45.9614 39.3073 46.2816 39.8712 46.8516C40.4352 47.4216 40.752 48.1947 40.752 49.0008V68.1174C41.3151 67.9485 42.0383 67.7684 42.8296 67.58C43.3793 67.4496 43.8692 67.1351 44.2199 66.6878C44.5705 66.2405 44.7612 65.6864 44.7611 65.1157V41.4024C44.7611 40.5962 45.0779 39.8231 45.6418 39.253C46.2057 38.6829 46.9705 38.3626 47.7681 38.3624H52.7799C53.5774 38.3626 54.3423 38.6829 54.9061 39.253C55.47 39.8231 55.7869 40.5962 55.7869 41.4024V63.4106C55.7869 63.4106 57.0417 62.8974 58.264 62.3759C58.718 62.1819 59.1054 61.8569 59.378 61.4418C59.6506 61.0265 59.7961 60.5394 59.7966 60.0411V33.804C59.7966 32.998 60.1133 32.225 60.677 31.6551C61.2408 31.085 62.0055 30.7648 62.8029 30.7646H67.8148C68.6123 30.7646 69.3771 31.0848 69.941 31.6548C70.5049 32.2248 70.8217 32.9979 70.8217 33.804V55.4097C75.1668 52.2267 79.5701 48.3987 83.0645 43.7955C83.5717 43.1273 83.9071 42.3428 84.041 41.5117C84.1749 40.6807 84.1033 39.8291 83.8325 39.0328C82.2149 34.3289 79.6441 30.018 76.2837 26.3761C72.9232 22.7341 68.8477 19.8414 64.3178 17.8829C59.7879 15.9244 54.9033 14.9434 49.9768 15.0025C45.0502 15.0617 40.1901 16.1597 35.7076 18.2264C31.225 20.293 27.2185 23.2827 23.9447 27.0043C20.6709 30.7259 18.2017 35.0972 16.6952 39.8387C15.1888 44.5802 14.6782 49.5873 15.1961 54.5396C15.7141 59.492 17.2492 64.2806 19.7032 68.5989C20.1307 69.3437 20.7596 69.9499 21.5161 70.3461C22.2725 70.7422 23.1251 70.912 23.9738 70.8354C24.9217 70.7512 26.102 70.6318 27.5054 70.4652C28.1163 70.3951 28.6803 70.1003 29.0899 69.6369C29.4996 69.1736 29.7263 68.5741 29.7268 67.9526L29.7262 48.9796Z" fill="white"/>
<path d="M29.2002 79.2204C34.5356 83.066 40.8408 85.3746 47.4183 85.8902C53.9958 86.4053 60.589 85.1083 66.4684 82.1414C72.3478 79.1744 77.284 74.6541 80.7314 69.0802C84.1783 63.5062 86.002 57.096 86.0002 50.5589C86.0002 49.7432 85.962 48.9361 85.9073 48.1338C72.8404 67.4422 48.7138 76.4691 29.2013 79.2175" fill="#8B8B8B"/>
</svg>
