<svg width="100" height="100" viewBox="0 0 100 100" fill="none" xmlns="http://www.w3.org/2000/svg">
<path d="M88 26.3553C85.1608 27.6315 82.1432 28.462 79.0527 28.8179C82.3366 26.8756 84.7954 23.7899 85.9618 20.1469C82.8631 22.0151 79.4598 23.3185 75.9091 23.9968C73.7796 21.6906 71.0059 20.0839 67.9514 19.3875C64.8969 18.6911 61.7041 18.9373 58.7914 20.094C55.8786 21.2506 53.3819 23.2637 51.6282 25.8695C49.8745 28.4752 48.9458 31.5521 48.9636 34.6968C48.9629 35.8988 49.0962 37.0971 49.3609 38.2693C43.1768 37.9423 37.1299 36.3163 31.6108 33.4964C26.0917 30.6765 21.2232 26.7254 17.32 21.8984C15.9328 24.2817 15.2052 26.994 15.2127 29.7544C15.2051 32.329 15.832 34.8655 17.0375 37.1378C18.243 39.4102 19.9896 41.3479 22.1218 42.7782C19.6509 42.6969 17.235 42.0251 15.0745 40.8186V41.0093C15.0634 44.6212 16.3004 48.1251 18.5745 50.9238C20.8486 53.7225 24.0191 55.6427 27.5455 56.357C26.2173 56.7272 24.8474 56.9254 23.4691 56.9466C22.483 56.9457 21.4995 56.8469 20.5327 56.6518C21.5199 59.7669 23.4564 62.4922 26.0689 64.4431C28.6814 66.394 31.8381 67.4721 35.0936 67.5253C29.5756 71.8721 22.762 74.2298 15.7482 74.2193C14.4945 74.2135 13.2425 74.1266 12 73.9591C19.1181 78.5596 27.4055 81.004 35.8709 81C64.5436 81 80.21 57.1547 80.21 36.4831C80.21 35.8009 80.21 35.1246 80.21 34.454C83.2741 32.2508 85.9137 29.5066 88 26.3553V26.3553Z" fill="#43B0FF"/>
</svg>
