<svg width="100" height="100" viewBox="0 0 100 100" fill="none" xmlns="http://www.w3.org/2000/svg">
<path d="M35.3728 20.2593C34.5012 20.1239 34.4643 20.1079 34.8746 20.0449C35.6608 19.9237 37.517 20.0888 38.7963 20.3934C41.7826 21.1044 44.5001 22.9257 47.4008 26.1603L48.1714 27.0197L49.2737 26.8422C53.918 26.0947 58.6426 26.6887 62.5943 28.5171C63.6814 29.0201 65.3954 30.0215 65.6095 30.2788C65.6779 30.3607 65.8032 30.8887 65.8879 31.4519C66.1814 33.4006 66.0346 34.8943 65.4394 36.0099C65.1157 36.617 65.0976 36.8094 65.3153 37.329C65.4891 37.7437 65.9736 38.0504 66.4534 38.0499C67.4355 38.0485 68.4924 36.4585 68.9821 34.2462L69.1767 33.3675L69.5621 33.8046C71.676 36.2034 73.3364 39.4747 73.6215 41.8033L73.6958 42.4103L73.3406 41.8584C72.729 40.9087 72.1145 40.2621 71.3278 39.7407C69.9094 38.8008 68.4098 38.481 64.4383 38.2713C60.8512 38.082 58.8212 37.7752 56.8081 37.1177C53.3833 35.9993 51.6567 34.5098 47.5883 29.1637C45.7813 26.7893 44.6644 25.4754 43.5534 24.4174C41.0289 22.0134 38.5482 20.7526 35.3728 20.2593Z" fill="#E547FF"/>
<path d="M66.4185 25.5605C66.5087 23.9694 66.7242 22.9198 67.1573 21.9614C67.3288 21.582 67.4894 21.2715 67.5142 21.2715C67.539 21.2715 67.4645 21.5515 67.3486 21.8937C67.0336 22.824 66.982 24.0962 67.1988 25.5765C67.4742 27.4546 67.6307 27.7255 69.6128 29.7545C70.5425 30.7061 71.6237 31.9062 72.0157 32.4215L72.7285 33.3584L72.0157 32.6888C71.1441 31.87 69.1395 30.2732 68.6967 30.0448C68.3999 29.8918 68.3557 29.8943 68.1725 30.0769C68.0037 30.2452 67.9682 30.4979 67.9448 31.693C67.9084 33.5554 67.6549 34.7509 67.0432 35.9462C66.7124 36.5927 66.6602 36.4548 66.9596 35.7251C67.1831 35.1802 67.2058 34.9407 67.2042 33.1376C67.2007 29.5151 66.7713 28.6441 64.253 27.1521C63.615 26.7742 62.5639 26.2291 61.9173 25.9408C61.2705 25.6525 60.7567 25.4013 60.7754 25.3827C60.8467 25.3115 63.3026 26.0294 64.2911 26.4102C65.7614 26.9767 66.0041 27.0501 66.1827 26.9818C66.3024 26.9361 66.3603 26.5868 66.4185 25.5605Z" fill="#E547FF"/>
<path d="M37.066 31.7581C35.2963 29.3179 34.2014 25.5765 34.4383 22.7796L34.5118 21.9141L34.9145 21.9877C35.6711 22.126 36.9753 22.6122 37.5861 22.9837C39.2621 24.0032 39.9877 25.3454 40.726 28.7922C40.9422 29.8017 41.2258 30.9441 41.3564 31.331C41.5666 31.9536 42.3606 33.4077 43.0063 34.3522C43.4713 35.0323 43.1625 35.3546 42.1345 35.2617C40.5645 35.1197 38.4379 33.6498 37.066 31.7581Z" fill="#E547FF"/>
<path d="M64.272 49.9206C56.0016 46.5854 53.0889 43.6905 53.0889 38.806C53.0889 38.0872 53.1136 37.499 53.1436 37.499C53.1738 37.499 53.4938 37.7363 53.8547 38.0262C55.5318 39.3734 57.4098 39.9489 62.6088 40.7085C65.6681 41.1556 67.3898 41.5166 68.9779 42.0442C74.0258 43.7209 77.149 47.1235 77.8936 51.7582C78.1101 53.1049 77.9832 55.6303 77.6322 56.9613C77.3553 58.0126 76.5101 59.9075 76.2858 59.9801C76.2236 60.0003 76.1627 59.7618 76.1468 59.437C76.0617 57.6968 75.1836 56.0025 73.7091 54.7333C72.0324 53.2904 69.7798 52.1415 64.272 49.9206Z" fill="#E547FF"/>
<path d="M58.4665 51.3052C58.3628 50.6877 58.1832 49.899 58.0671 49.5526L57.8561 48.9229L58.2481 49.3635C58.7904 49.9732 59.2191 50.7536 59.5824 51.7928C59.8596 52.586 59.8908 52.8218 59.8887 54.1109C59.8866 55.3763 59.852 55.6416 59.596 56.3554C59.1922 57.4813 58.6912 58.2796 57.8504 59.1365C56.3397 60.6764 54.3974 61.5289 51.5946 61.8827C51.1073 61.9441 49.6873 62.0476 48.4389 62.1127C45.2927 62.2764 43.222 62.6151 41.3614 63.2694C41.0939 63.3636 40.855 63.4207 40.8308 63.3965C40.7555 63.3215 42.0224 62.565 43.0688 62.0602C44.5441 61.3484 46.0127 60.96 49.3034 60.4112C50.929 60.1399 52.6077 59.811 53.034 59.6801C57.0595 58.444 59.1287 55.2539 58.4665 51.3052Z" fill="#E547FF"/>
<path d="M62.2575 58.0489C61.1588 55.683 60.9065 53.3988 61.5084 51.2684C61.5728 51.0408 61.6764 50.8545 61.7387 50.8545C61.801 50.8545 62.0603 50.995 62.3148 51.1665C62.8212 51.508 63.8367 52.0829 66.5424 53.5604C69.9186 55.404 71.8434 56.8315 73.1526 58.4625C74.2989 59.891 75.0084 61.5178 75.3499 63.5015C75.5431 64.6253 75.4299 67.3291 75.1421 68.4606C74.2343 72.0284 72.1246 74.8308 69.1154 76.4661C68.6745 76.7057 68.2788 76.9025 68.236 76.9034C68.1932 76.9041 68.3537 76.4951 68.5929 75.9942C69.6052 73.8749 69.7204 71.8134 68.9552 69.5188C68.4865 68.1138 67.5311 66.3994 65.6021 63.502C63.3592 60.1334 62.8093 59.2367 62.2575 58.0489Z" fill="#E547FF"/>
<path d="M31.1925 70.814C34.2617 68.2186 38.0803 66.3748 41.5588 65.8089C43.0579 65.5648 45.5551 65.6617 46.9433 66.0175C49.1685 66.5879 51.1589 67.8653 52.1941 69.3873C53.2058 70.8748 53.6399 72.171 54.0918 75.0552C54.27 76.1928 54.4639 77.3353 54.5226 77.594C54.8619 79.0886 55.5224 80.2834 56.3406 80.8834C57.6405 81.8362 59.8787 81.8955 62.0804 81.0354C62.4541 80.8894 62.7785 80.7883 62.8013 80.8112C62.8812 80.8906 61.7726 81.634 60.9903 82.0252C59.9379 82.5517 59.1011 82.7554 57.989 82.7554C55.9725 82.7554 54.2983 81.7279 52.9013 79.6329C52.6265 79.2206 52.0085 77.9856 51.5282 76.8888C50.0533 73.5193 49.3249 72.4928 47.6123 71.3694C46.1219 70.392 44.1999 70.217 42.7539 70.9271C40.8546 71.8598 40.3246 74.2908 41.685 75.8315C42.2256 76.4437 43.2339 76.9719 44.0584 77.0745C45.6008 77.2667 46.9263 76.0915 46.9263 74.5318C46.9263 73.5191 46.5376 72.9412 45.5593 72.499C44.223 71.8952 42.7868 72.601 42.7936 73.8583C42.7966 74.3944 43.0297 74.731 43.5662 74.9742C43.9104 75.1302 43.9185 75.1426 43.6377 75.0842C42.4117 74.8295 42.1244 73.3492 43.1102 72.3663C44.2937 71.1865 46.7411 71.7072 47.5816 73.3177C47.9346 73.994 47.9756 75.3412 47.6678 76.1547C46.9788 77.9755 44.9701 78.9329 42.9322 78.4118C41.5449 78.0571 40.98 77.673 39.3073 75.9473C36.4007 72.9486 35.2722 72.3674 31.0818 71.7123L30.2788 71.5867L31.1925 70.814Z" fill="#E547FF"/>
<path fill-rule="evenodd" clip-rule="evenodd" d="M9.27477 3.63844C18.9817 15.4381 33.9467 33.8096 34.6898 34.8381C35.3031 35.6874 35.0723 36.4509 34.0215 37.0492C33.437 37.382 32.2355 37.7191 31.6339 37.7191C30.9535 37.7191 30.1871 37.391 29.6289 36.8606C29.2343 36.4858 27.6419 34.1044 23.966 28.3917C21.1533 24.0207 18.7995 20.3946 18.7353 20.3339C18.5869 20.1934 18.5894 20.1982 23.6792 29.3194C26.8752 35.0469 27.9541 37.0718 27.9541 37.3426C27.9541 37.8934 27.8041 38.1828 27.1257 38.9408C25.9947 40.2044 25.4892 41.6242 25.1243 44.5628C24.715 47.8568 23.5646 50.1837 20.3764 54.1661C18.5102 56.4973 18.2048 56.9245 17.7339 57.8642C17.1406 59.0473 16.9776 59.7101 16.9115 61.2041C16.8416 62.7838 16.9777 63.8043 17.4596 65.3147C17.8814 66.6371 18.3217 67.5101 19.4475 69.2566C20.419 70.7635 20.9785 71.8835 20.9785 72.3215C20.9785 72.6702 21.0449 72.6706 22.5503 72.3302C26.1529 71.5153 29.0783 70.0822 30.7236 68.326C31.7418 67.239 31.9808 66.6387 31.9886 65.1491C31.9936 64.1748 31.9595 63.9708 31.6966 63.4103C31.2685 62.498 30.4892 61.7394 28.7716 60.5635C26.5211 59.0226 25.5599 57.7822 25.2944 56.0762C25.0765 54.6764 25.3293 53.6888 26.5742 51.0754C27.8629 48.3703 28.1822 47.2175 28.3983 44.4909C28.5378 42.7292 28.731 42.0344 29.2363 41.4769C29.7633 40.8953 30.2378 40.6985 31.5421 40.5199C33.6686 40.2289 35.0226 39.678 36.1357 38.6507C37.1012 37.7596 37.5052 36.901 37.5673 35.6083L37.6143 34.6286L37.0748 33.9986C35.1208 31.7167 7.96622 1.84473 7.84596 1.84473C7.82028 1.84473 8.46326 2.65196 9.27477 3.63844ZM22.0753 62.9916C22.5171 62.2081 22.2824 61.2006 21.5434 60.7085C20.8451 60.2434 19.7604 60.4625 19.7604 61.0684C19.7604 61.2533 19.8626 61.3879 20.0927 61.5066C20.48 61.7062 20.5082 61.9307 20.2034 62.3896C19.8947 62.8544 19.9196 63.2629 20.2736 63.5406C20.8443 63.9882 21.6521 63.742 22.0753 62.9916Z" fill="#E547FF"/>
<path fill-rule="evenodd" clip-rule="evenodd" d="M38.9567 41.0339C37.9585 41.341 36.9881 42.4006 36.6876 43.5118C36.5044 44.1897 36.6083 45.3788 36.8829 45.7459C37.3263 46.339 37.7551 46.4953 38.9164 46.4871C41.1897 46.4713 43.166 45.4947 43.3958 44.2738C43.5842 43.2732 42.7162 41.8862 41.5206 41.2774C40.9036 40.9633 39.5915 40.8387 38.9567 41.0339ZM41.6143 43.1152C41.9649 42.6164 41.8116 42.0771 41.2153 41.7125C40.0799 41.018 38.3627 41.5926 38.3627 42.6671C38.3627 43.2019 39.2581 43.7853 40.079 43.7853C40.6252 43.7853 41.3729 43.4591 41.6143 43.1152Z" fill="#E547FF"/>
</svg>
